<svg xmlns="http://www.w3.org/2000/svg" xmlns:xlink="http://www.w3.org/1999/xlink" width="120" height="40" viewBox="0 0 120 40">
  <defs>
    <rect id="rect-2" width="24" height="24" x="8" y="8"/>
    <mask id="mask-3" maskContentUnits="userSpaceOnUse" maskUnits="userSpaceOnUse">
      <rect width="120" height="40" x="0" y="0" fill="black"/>
      <use fill="white" xlink:href="#rect-2"/>
    </mask>
  </defs>
  <g>
    <path fill="rgb(79,79,79)" fill-opacity=".6" fill-rule="evenodd" d="M20 0h80c11.03830049 0 20 8.96169951 20 20s-8.96169951 20-20 20H20C8.96169951 40 0 31.03830049 0 20S8.96169951 0 20 0z"/>
    <g>
      <use fill="none" xlink:href="#rect-2"/>
      <g mask="url(#mask-3)">
        <path fill="rgb(255,255,255)" fill-rule="evenodd" d="M11 9v3H8v2h3v3h2v-3h3v-2h-3V9h-2zm3 6v3h-3v10c0 1.09999847.8999939 2 2 2h16c1.1000061 0 2-.90000153 2-2V16c0-1.09999847-.8999939-2-2-2h-3.17001343L24 12h-7v3h-3zm7 12c2.76000977 0 5-2.23999786 5-5s-2.23999023-5-5-5-5 2.23999786-5 5 2.23999023 5 5 5zm0-1.79999542c-1.77001953 0-3.2000122-1.4300003-3.2000122-3.20000458 0-1.76999664 1.42999267-3.19999695 3.2000122-3.19999695 1.76998901 0 3.19998169 1.4300003 3.19998169 3.19999695 0 1.77000427-1.42999268 3.20000458-3.19998169 3.20000458z"/>
      </g>
    </g>
    <text font-size="0" style="white-space:pre">
      <tspan x="40" y="26" fill="rgb(255,255,255)" font-family="Arial" font-size="18" font-weight="400" style="white-space:pre;text-transform:none">添加照片</tspan>
    </text>
  </g>
</svg>
