<svg xmlns="http://www.w3.org/2000/svg" xmlns:xlink="http://www.w3.org/1999/xlink" width="112" height="112" viewBox="0 0 112 112">
  <defs>
    <rect id="rect-2" width="32" height="32" x="40" y="40"/>
    <mask id="mask-3" maskContentUnits="userSpaceOnUse" maskUnits="userSpaceOnUse">
      <rect width="112" height="112" x="0" y="0" fill="black"/>
      <use fill="white" xlink:href="#rect-2"/>
    </mask>
  </defs>
  <g>
    <rect width="112" height="112" x="0" y="0" fill="rgb(242,242,242)"/>
    <g>
      <use fill="none" xlink:href="#rect-2"/>
      <g mask="url(#mask-3)">
        <path fill="rgb(0,0,0)" fill-rule="evenodd" d="M44 41.33331299v4h-4V48h4v4h2.66666794v-4h3.99999618v-2.66668701h-3.99999618v-4H44zm4 8v4h-4v13.33331299c0 1.4666748 1.20000076 2.666687 2.66666794 2.666687H68c1.46666718 0 2.66666412-1.2000122 2.66666412-2.666687v-16C70.66666412 49.19995118 69.46666718 48 68 48h-4.22666931l-2.43999481-2.66668701H52v4h-4zm9.33332825 16C61.01332855 65.33331299 64 62.34667969 64 58.666687 64 54.98669434 61.01332855 52 57.33332825 52s-6.66666413 2.98669434-6.66666413 6.66668701c0 3.67999268 2.98666382 6.66662598 6.66666413 6.66662598zm.00000763-2.39996338c-2.36000061 0-4.26667023-1.90667725-4.26667023-4.2666626s1.90666962-4.2666626 4.26667023-4.2666626c2.35999298 0 4.2666626 1.90667725 4.2666626 4.2666626s-1.90666962 4.2666626-4.2666626 4.2666626z"/>
      </g>
    </g>
  </g>
</svg>
