<svg xmlns="http://www.w3.org/2000/svg" xmlns:xlink="http://www.w3.org/1999/xlink" width="192" height="40" viewBox="0 0 192 40">
  <defs>
    <rect id="rect-2" width="24" height="24" x="60" y="8"/>
    <mask id="mask-3" maskContentUnits="userSpaceOnUse" maskUnits="userSpaceOnUse">
      <rect width="192" height="40" x="0" y="0" fill="black"/>
      <use fill="white" xlink:href="#rect-2"/>
    </mask>
  </defs>
  <g>
    <rect width="192" height="40" x="0" y="0" fill="rgb(244,237,212)"/>
    <g>
      <g>
        <use fill="none" xlink:href="#rect-2"/>
        <g mask="url(#mask-3)">
          <path fill="rgb(79,79,79)" fill-rule="evenodd" d="M64 10h16c1.1000061 0 2 .8999939 2 2v12c0 1.1000061-.8999939 2-2 2H66l-4 4 .01000977-18c0-1.1000061.88998413-2 1.98999023-2zm2 6h12v-2H66v2zm12 1H66v2h12v-2zm-4 5h-8v-2h8v2z"/>
        </g>
      </g>
      <text font-size="0" style="white-space:pre">
        <tspan x="92" y="26" fill="rgb(79,79,79)" font-family="Arial" font-size="18" font-weight="400" style="white-space:pre;text-transform:none">шоишо║</tspan>
      </text>
    </g>
  </g>
</svg>
