<svg xmlns="http://www.w3.org/2000/svg" xmlns:xlink="http://www.w3.org/1999/xlink" width="200" height="40" viewBox="0 0 200 40">
  <defs>
    <rect id="rect-2" width="24" height="24" x="64" y="8"/>
    <mask id="mask-3" maskContentUnits="userSpaceOnUse" maskUnits="userSpaceOnUse">
      <rect width="200" height="40" x="0" y="0" fill="black"/>
      <use fill="white" xlink:href="#rect-2"/>
    </mask>
  </defs>
  <g>
    <rect width="200" height="40" x="0" y="0" fill="rgb(244,237,212)"/>
    <g>
      <text font-size="0" style="white-space:pre">
        <tspan x="96" y="26" fill="rgb(79,79,79)" font-family="Arial" font-size="18" font-weight="400" style="white-space:pre;text-transform:none">介绍</tspan>
      </text>
      <g>
        <use fill="none" xlink:href="#rect-2"/>
        <g mask="url(#mask-3)">
          <ellipse cx="68.5" cy="17.5" fill="rgb(79,79,79)" rx="2.5" ry="2.5"/>
          <ellipse cx="73" cy="13.5" fill="rgb(79,79,79)" rx="2.5" ry="2.5"/>
          <ellipse cx="79" cy="13.5" fill="rgb(79,79,79)" rx="2.5" ry="2.5"/>
          <ellipse cx="83.5" cy="17.5" fill="rgb(79,79,79)" rx="2.5" ry="2.5"/>
          <path fill="rgb(79,79,79)" fill-rule="evenodd" d="M81.34 22.86c-.87-1.02-1.6-1.89-2.48-2.91-.46-.54-1.05-1.08-1.75-1.32-.11-.04-.22-.07-.33-.09-.25-.04-.52-.04-.78-.04s-.53 0-.79.05c-.11.02-.22.05-.33.09-.7.24-1.28.78-1.75 1.32-.87 1.02-1.6 1.89-2.48 2.91-1.31 1.31-2.92 2.76-2.62 4.79.29 1.02 1.02 2.03 2.33 2.32.73.15 3.06-.44 5.54-.44h.18c2.48 0 4.81.58 5.54.44 1.31-.29 2.04-1.31 2.33-2.32.31-2.04-1.3-3.49-2.61-4.8z"/>
        </g>
      </g>
    </g>
  </g>
</svg>
