<svg xmlns="http://www.w3.org/2000/svg" xmlns:xlink="http://www.w3.org/1999/xlink" width="104" height="24" viewBox="0 0 104 24">
  <defs>
    <rect id="rect-3" width="24" height="24" x="80" y="0"/>
    <mask id="mask-4" maskContentUnits="userSpaceOnUse" maskUnits="userSpaceOnUse">
      <rect width="104" height="24" x="0" y="0" fill="black"/>
      <use fill="white" xlink:href="#rect-3"/>
    </mask>
  </defs>
  <g>
    <g>
      <g>
        <path fill="none" d="M80 0h24v24H80V0z"/>
        <path fill="rgb(79,79,79)" fill-rule="evenodd" d="M100.34500122 3.02500153C100.39498902 3.00499725 100.44500732 3 100.5 3c.2749939 0 .5.22499847.5.5v15.12000275c0 .22999572-.1499939.40999603-.35998535.48499298L95 21l-6-2.09999847-5.34500122 2.07499694C83.60501098 20.99500275 83.55499268 21 83.5 21c-.2749939 0-.5-.22499847-.5-.5V5.37999725c0-.22999572.15499878-.40999603.36499023-.47999572L89 3l6 2.09999847 5.34500122-2.07499694zM89 16.89500427L95 19V7.10500336L89 5v11.89500427z"/>
      </g>
      <use fill="none" xlink:href="#rect-3"/>
      <g mask="url(#mask-4)"/>
    </g>
    <text font-size="0" style="white-space:pre">
      <tspan x="5" y="18" fill="rgb(79,79,79)" font-family="Arial" font-size="18" font-weight="400" style="white-space:pre;text-transform:none">详细地图</tspan>
    </text>
  </g>
</svg>
