<svg xmlns="http://www.w3.org/2000/svg" xmlns:xlink="http://www.w3.org/1999/xlink" width="176" height="64" viewBox="0 0 176 64">
  <defs>
    <rect id="rect-2" width="40" height="40" x="16" y="12"/>
    <mask id="mask-3" maskContentUnits="userSpaceOnUse" maskUnits="userSpaceOnUse">
      <rect width="176" height="64" x="0" y="0" fill="black"/>
      <use fill="white" xlink:href="#rect-2"/>
    </mask>
  </defs>
  <g>
    <path fill="rgb(255,255,255)" fill-rule="evenodd" d="M16 0h144c8.8306404 0 16 7.1693596 16 16v32c0 8.8306404-7.1693596 16-16 16H16C7.1693596 64 0 56.8306404 0 48V16C0 7.1693596 7.1693596 0 16 0z"/>
    <text font-size="0" style="white-space:pre">
      <tspan x="100" y="40" fill="rgb(79,79,79)" font-family="Arial" font-size="24" font-weight="400" style="white-space:pre;text-transform:none">我</tspan>
    </text>
    <g>
      <use fill="none" xlink:href="#rect-2"/>
      <g mask="url(#mask-3)">
        <ellipse cx="23.667" cy="27.833" fill="rgb(79,79,79)" rx="4.333" ry="4.167"/>
        <ellipse cx="31.417" cy="21.167" fill="rgb(79,79,79)" rx="4.583" ry="4.167"/>
        <ellipse cx="41.417" cy="21.167" fill="rgb(79,79,79)" rx="4.583" ry="4.167"/>
        <ellipse cx="48.667" cy="27.833" fill="rgb(79,79,79)" rx="4.333" ry="4.167"/>
        <path fill="rgb(79,79,79)" fill-rule="evenodd" d="M45.09899808 36.76666667c-1.47114123-1.69166667-2.69849334-3.15-4.16963456-4.84166667-.78180648-.9-1.76536948-1.80833333-2.93387594-2.2-.17653694-.05833333-.36148041-.10833333-.5548304-.14166667C37.01192459 29.5 36.55797244 29.5 36.12083333 29.5c-.4371391 0-.89109125 0-1.31982384.08333333-.18494347.03333334-.36988694.08333334-.5548304.14166667-1.16850647.39166667-2.15206946 1.3-2.93387594 2.2-1.47114123 1.69166667-2.69849334 3.15-4.16963457 4.84166667-2.20250858 2.175-4.90100191 4.6-4.41342368 7.99166666.48757824 1.69166667 1.71493035 3.39166667 3.92584545 3.875 1.2273521.24166667 5.14479104-.725 9.3144256-.725.05043913 0 .10087826.00833334.15131738.00833334.05043913 0 .10087826-.00833334.15131739-.00833334 4.16963456 0 8.08707349.96666667 9.3144256.725 2.20250858-.48333333 3.42986069-2.175 3.92584544-3.875C50 41.36666667 47.30991318 38.94166667 45.09899808 36.76666667z"/>
      </g>
    </g>
    <ellipse cx="132" cy="20" fill="rgb(255,95,88)" rx="4" ry="4"/>
  </g>
</svg>
